<?xml version="1.0" encoding="UTF-8"?>
<svg xmlns="http://www.w3.org/2000/svg" version="1.1" viewBox="0 0 600 600">
  <defs>
    <style>
      .cls-1 {
        font-family: ArialNarrow, Arial;
        font-size: 12px;
      }
    </style>
  </defs>
  <!-- Generator: Adobe Illustrator 28.7.1, SVG Export Plug-In . SVG Version: 1.2.0 Build 142)  -->
  <g>
    <g id="Layer_1">
      <g>
        <path d="M446.38,323.71h-20.63c-.45-.04-.9-.04-1.34-.01-30.73-.27-58-20.57-67.39-49.36,43.27-21.18,73.15-65.67,73.15-117,0-71.76-58.38-130.18-130.17-130.18s-130.18,58.43-130.18,130.18c0,51.29,29.84,95.76,73.07,116.96-3.99,12.21-11.19,22.9-20.51,31.18-.38.28-.74.59-1.07.93-12.65,10.8-28.99,17.25-46.41,17.25h-21.27c-51.89,0-94.15,42.24-94.15,94.16v146.31c0,4.81,3.9,8.7,8.7,8.7h463.65c4.81,0,8.7-3.9,8.7-8.7v-146.26c0-51.9-42.24-94.16-94.15-94.16ZM345.32,426.65l19.79,26.2-65.12,95.8-65.12-95.8,19.79-26.2c.66-.87,1.15-1.86,1.44-2.92,1.28-4.63-1.43-9.43-6.06-10.71l-40.71-11.27-22.34-61.51c12.77-1.75,24.76-6.22,35.3-12.87,11.14,32.77,42.09,55.63,77.7,55.63,35.6,0,66.53-22.83,77.68-55.59,10.53,6.63,22.5,11.09,35.24,12.83l-22.27,61.51-40.71,11.27c-1.06.29-2.05.78-2.92,1.44-3.83,2.9-4.59,8.35-1.7,12.19ZM187.22,157.34c0-62.19,50.59-112.78,112.78-112.78s112.77,50.6,112.77,112.78c0,46.29-28.03,86.15-68.02,103.5-.06.01-.13.02-.19.04-.96.24-1.84.63-2.63,1.14-12.97,5.21-27.12,8.09-41.93,8.09s-28.87-2.86-41.81-8.04c-.95-.65-2.04-1.12-3.24-1.36-39.83-17.42-67.73-57.19-67.73-103.38ZM259.02,280.9c12.89,4.29,26.67,6.62,40.98,6.62s28.03-2.32,40.9-6.59c4.59,13.45,12.24,25.31,22.05,34.87-5.98,25.3-26.64,44.75-52.59,48.96-33.75,5.47-65.61-16.24-73.31-49.03,9.78-9.55,17.4-21.4,21.98-34.82ZM76.87,417.82c.05-42.36,34.37-76.69,76.73-76.76h15.17l25.73,70.84c.96,2.65,3.14,4.66,5.85,5.41l32.7,9.06-15.84,20.96c-2.25,2.98-2.35,7.05-.25,10.14l66.58,97.96H76.87v-137.61ZM523.11,555.44h-206.7l66.6-97.99c2.1-3.08,1.99-7.16-.25-10.14l-15.84-20.96,32.7-9.06c2.72-.75,4.9-2.77,5.86-5.43l25.65-70.81h15.25c42.37.05,76.7,34.39,76.74,76.76v137.61Z"/>
        <path d="M263.18,130.65c4.81,0,8.7-3.9,8.7-8.7,0-15.53,12.59-28.11,28.11-28.11s28.11,12.59,28.11,28.11-12.59,28.11-28.11,28.11c-4.81,0-8.7,3.9-8.7,8.7v32.16c0,4.81,3.9,8.7,8.7,8.7s8.7-3.9,8.7-8.7v-24.29c21.38-4.16,36.81-22.89,36.81-44.67,0-25.14-20.37-45.52-45.51-45.52-25.14,0-45.52,20.37-45.52,45.51,0,4.81,3.9,8.7,8.7,8.7Z"/>
        <path d="M299.99,214.62c-4.81,0-8.7,3.9-8.7,8.7v6.22c0,4.81,3.9,8.7,8.7,8.7s8.7-3.9,8.7-8.7v-6.22c0-4.81-3.9-8.7-8.7-8.7Z"/>
      </g>
      <text class="cls-1" transform="translate(331.98 594.71)"><tspan x="0" y="0">“Missing” by Qadeer Hussain from Noun Project (CC BY 3.0)</tspan></text>
    </g>
  </g>
</svg>